PathFileType	4	(X/Y/Z)	./resultDataOpenSim/trcMotMarkerGrf/sub10/qtm-04-02.trc
DataRate	CameraRate	NumFrames	NumMarkers	Units	OrigDataRate	OrigDataStartFrame	OrigNumFrames
250.000000	250.000000	13	24	m	250.000000	462	527
Frame#	Time	L.Toe.Tip			R.Toe.Tip			L.Ankle.Lat			R.Ankle.Lat			L.Ankle.Med			R.Ankle.Med			L.Heel			R.Heel			L.Knee.Lat			R.Knee.Lat			L.Knee.Med			R.Knee.Med			L.Thigh.Upper			R.Thigh.Upper			L.ASIS			R.ASIS			V.Sacral			L.Acromium			R.Acromium			C7			L.Elbow			R.Elbow			L.Wrist.Lat			R.Wrist.Lat
		X1	Y1	Z1	X2	Y2	Z2	X3	Y3	Z3	X4	Y4	Z4	X5	Y5	Z5	X6	Y6	Z6	X7	Y7	Z7	X8	Y8	Z8	X9	Y9	Z9	X10	Y10	Z10	X11	Y11	Z11	X12	Y12	Z12	X13	Y13	Z13	X14	Y14	Z14	X15	Y15	Z15	X16	Y16	Z16	X17	Y17	Z17	X18	Y18	Z18	X19	Y19	Z19	X20	Y20	Z20	X21	Y21	Z21	X22	Y22	Z22	X23	Y23	Z23	X24	Y24	Z24

462	1.844	1.5801828	0.13368361	-0.22663015	0.84049774	0.038701519	-0.036128708	1.4539605	0.094458979	-0.26525441	0.70773559	0.074257077	0.0070720302	1.4510599	0.11252226	-0.18515781	0.72789014	0.095120917	-0.079727986	1.4121853	0.035582344	-0.22680315	0.64857738	0.060558591	-0.035558508	1.2907141	0.45365256	-0.26425357	0.9161167	0.41913745	0.030906036	1.3139878	0.42484891	-0.14589426	0.937357	0.42046586	-0.094793496	1.1325552	0.79955841	-0.28801581	0.9940445	0.82417063	0.081999389	1.1635741	0.91047299	-0.20369888	1.088134	0.91330828	0.03733106	0.9364939	0.90808313	-0.14551257	1.0385125	1.3767826	-0.2578281	1.0413118	1.3738328	0.064884674	0.95226371	1.3978534	-0.10163541	0.85637017	1.1009747	-0.34392587	1.0881909	1.0185635	0.15394173	0.8812158	0.86195784	-0.38177611	1.3391363	1.0097387	0.1051433
463	1.848	1.5881518	0.13408783	-0.22721359	0.84062515	0.038716806	-0.036093559	1.4619682	0.094265342	-0.26532473	0.70823491	0.075697811	0.0072469967	1.4595148	0.11234578	-0.18506167	0.7287417	0.096207727	-0.07970435	1.4206107	0.035204407	-0.22661697	0.64906411	0.062516043	-0.035490427	1.2974262	0.45306459	-0.26454017	0.91994903	0.4184134	0.030494682	1.3205705	0.4242427	-0.14609129	0.94184355	0.41939692	-0.095057883	1.139635	0.79849926	-0.28838629	0.99878522	0.82315164	0.081077938	1.1698496	0.90938225	-0.2037675	1.0934188	0.91210069	0.03705758	0.93970921	0.90748986	-0.14557523	1.043652	1.3754624	-0.2585655	1.0472628	1.3724522	0.064184899	0.95772279	1.3965033	-0.1022179	0.8612712	1.0997107	-0.34458946	1.0957882	1.0171222	0.15255789	0.88611632	0.86084176	-0.38299765	1.3466321	1.0099492	0.10341151
464	1.852	1.595648	0.13416571	-0.22786232	0.84077401	0.038737843	-0.036068479	1.4694494	0.093846497	-0.26532939	0.7088799	0.077175677	0.0073766844	1.4672818	0.11207839	-0.18503393	0.72965956	0.097357193	-0.079653547	1.4284087	0.034688653	-0.22633706	0.64960932	0.064586845	-0.035408586	1.3042119	0.45249535	-0.26482658	0.92388474	0.41766171	0.0301086	1.3272203	0.42368183	-0.14633018	0.94645087	0.41829229	-0.095311606	1.1467436	0.79751046	-0.28875744	1.0036198	0.82216476	0.080184922	1.1761285	0.90828389	-0.20377626	1.0987733	0.91088924	0.036769718	0.94144241	0.9073446	-0.14459217	1.0488104	1.3741775	-0.25932751	1.053248	1.3711332	0.063449474	0.96323124	1.3951974	-0.10282883	0.86624941	1.0984354	-0.34526461	1.1033704	1.0157051	0.15117594	0.89113384	0.85973168	-0.38421757	1.3540955	1.0101038	0.10166426
465	1.856	1.6026749	0.13383857	-0.22849636	0.84095474	0.038771595	-0.036054567	1.4764335	0.09321395	-0.26529013	0.70969715	0.078698492	0.0074546875	1.4744455	0.11162449	-0.18505443	0.73065307	0.098573319	-0.07957514	1.4355842	0.03403422	-0.22604786	0.65023872	0.066763845	-0.035347657	1.3110854	0.45195377	-0.26511137	0.92792037	0.41689221	0.029756232	1.3339603	0.42318468	-0.14662014	0.95117929	0.41715787	-0.095555731	1.1538688	0.79661144	-0.28913917	1.008515	0.82117871	0.079280094	1.1824186	0.90718104	-0.20375035	1.1042485	0.90965693	0.03643541	0.94320614	0.90725518	-0.14346119	1.0539917	1.3729299	-0.2601163	1.0592536	1.3698829	0.062684424	0.96879584	1.3939372	-0.10346747	0.87130805	1.0971531	-0.3459337	1.1109224	1.0143344	0.1497951	0.89627287	0.85862748	-0.38543273	1.361513	1.0101977	0.09989698
466	1.86	1.6092455	0.13308631	-0.22906221	0.84117166	0.038819672	-0.036049302	1.4829422	0.092380188	-0.2652263	0.71065007	0.080302502	0.0075169736	1.4810899	0.1109489	-0.18508161	0.73172793	0.099863145	-0.079476804	1.4421609	0.033242042	-0.22577759	0.65097039	0.069044552	-0.035323307	1.3180552	0.45145227	-0.26538845	0.93205448	0.41611376	0.02942806	1.3408162	0.42277245	-0.1469583	0.95602811	0.41599343	-0.095779022	1.1609856	0.79582239	-0.2895401	1.0134658	0.82017566	0.078344475	1.1887348	0.90608638	-0.20374135	1.1098975	0.90841002	0.036016892	0.94652492	0.90681441	-0.14315612	1.0592096	1.3717217	-0.26092473	1.0652835	1.3687026	0.061884888	0.97441971	1.3927229	-0.10412586	0.87645552	1.0958708	-0.34657988	1.1184321	1.0130645	0.14836232	0.90153748	0.85753198	-0.38664098	1.3688761	1.0102305	0.09811027
467	1.864	1.6153701	0.13192624	-0.2295245	0.84141916	0.038873369	-0.036044851	1.4889905	0.091364206	-0.26515095	0.71167255	0.082008412	0.0075891028	1.4872767	0.11004449	-0.18508445	0.73288765	0.10123158	-0.079367371	1.4481955	0.032313992	-0.22546857	0.65180407	0.071438921	-0.035323638	1.3251217	0.45099991	-0.26564454	0.93629863	0.41532644	0.029111999	1.3478006	0.42245942	-0.14733079	0.96099869	0.41480065	-0.095984871	1.1680564	0.79515656	-0.28996182	1.0185033	0.81916205	0.077379486	1.1950848	0.90501597	-0.20377042	1.1157142	0.90718576	0.035515907	0.95158814	0.90595597	-0.14383193	1.0644792	1.3705548	-0.26174607	1.0713512	1.3675895	0.061042209	0.98009694	1.3915491	-0.10480416	0.88169703	1.0945897	-0.34721122	1.1258918	1.0119084	0.14681003	0.90692621	0.85644715	-0.38784315	1.3761931	1.0102092	0.096312813
468	1.868	1.6210535	0.13038958	-0.229872	0.8416887	0.038922247	-0.036032444	1.4945901	0.090185107	-0.26506892	0.71272259	0.08381743	0.0076697003	1.4930532	0.10890835	-0.18505293	0.73413612	0.1026824	-0.079249927	1.453767	0.031249071	-0.22500858	0.65272053	0.073970118	-0.035302274	1.3322843	0.45059768	-0.26587492	0.94067648	0.41452543	0.028800494	1.354908	0.42224572	-0.14771149	0.96609741	0.41358563	-0.096220147	1.1750458	0.79461447	-0.29040082	1.0236781	0.81815796	0.076397598	1.2014637	0.90398079	-0.20382286	1.1216281	0.90601361	0.034980682	0.95760013	0.90487157	-0.14501955	1.069807	1.3694298	-0.26258187	1.0774586	1.3665406	0.060157267	0.98581559	1.390406	-0.10551675	0.88703185	1.0933087	-0.34785427	1.1332959	1.0108203	0.14511398	0.91243525	0.85537519	-0.38903893	1.3834824	1.0101444	0.094517828
469	1.872	1.6263032	0.12852517	-0.2301243	0.84197746	0.038963529	-0.036010786	1.4997554	0.088854447	-0.26497875	0.71380851	0.085730164	0.0077512618	1.4984498	0.10754678	-0.18498988	0.73548074	0.10421839	-0.079126485	1.4589183	0.030042284	-0.22435405	0.65369859	0.076661816	-0.035202395	1.3395458	0.45023893	-0.26609279	0.94519944	0.41370756	0.028485365	1.3621284	0.42212009	-0.14806387	0.9713334	0.41235036	-0.096552719	1.1819387	0.7941874	-0.29085855	1.0290113	0.81717239	0.07540572	1.2078646	0.90298668	-0.20388989	1.1275686	0.90488294	0.034464157	0.96389869	0.90373788	-0.14631094	1.0751894	1.3683453	-0.26343493	1.0835943	1.3655544	0.059240064	0.9915666	1.3892862	-0.10627527	0.89246182	1.0920442	-0.34851734	1.1406386	1.0097583	0.14329802	0.91806684	0.85432127	-0.39022697	1.3907497	1.0100399	0.092728014
470	1.876	1.6311367	0.12642435	-0.23032233	0.84228372	0.038998381	-0.035987674	1.5045058	0.087378507	-0.26487383	0.71496658	0.087747905	0.0078366091	1.5034489	0.10601422	-0.18490206	0.73693468	0.10583488	-0.079005382	1.4636098	0.028686645	-0.2236117	0.65474213	0.079515481	-0.035023001	1.3469132	0.449913	-0.26631781	0.94986025	0.41288092	0.028164509	1.3694591	0.42206507	-0.14835252	0.97670875	0.41109155	-0.097022833	1.1887474	0.79386016	-0.29134664	1.0344624	0.81619445	0.074393861	1.2142906	0.90203874	-0.20398293	1.1335158	0.90376559	0.033987579	0.97027469	0.90263688	-0.14756261	1.0806181	1.3672989	-0.26430348	1.0897527	1.3646282	0.058300834	0.99734887	1.3881866	-0.10707138	0.89800006	1.0908415	-0.34916699	1.1479159	1.0087177	0.1413967	0.92382936	0.85328831	-0.39140858	1.3979798	1.0098879	0.090924777
471	1.88	1.6355823	0.1242132	-0.23051789	0.84259957	0.039024964	-0.035974647	1.5088617	0.085765709	-0.26474272	0.71622853	0.089866516	0.0079346887	1.5079429	0.10446345	-0.18479559	0.73851187	0.10752212	-0.078897317	1.4677745	0.027174037	-0.22290143	0.65588971	0.082502801	-0.034855126	1.3543941	0.44960839	-0.26656718	0.95465628	0.41206856	0.027846806	1.3768939	0.42206386	-0.14856646	0.98220621	0.40981367	-0.097600347	1.1954955	0.79360763	-0.29187878	1.0399763	0.81521197	0.07334517	1.2207546	0.90114213	-0.20411259	1.1394979	0.90264631	0.033540661	0.97662273	0.90161996	-0.14869876	1.0860816	1.3662886	-0.26518808	1.095941	1.3637549	0.057345735	1.0031671	1.3871061	-0.10788188	0.90366807	1.0897608	-0.34974014	1.1551288	1.007712	0.13943234	0.92972508	0.85227109	-0.39258587	1.4051561	1.0096753	0.089086289
472	1.884	1.6396804	0.12194554	-0.23075092	0.84291946	0.039041356	-0.035981528	1.5128408	0.084029798	-0.26457193	0.71760512	0.09207923	0.0080416998	1.5117649	0.10312442	-0.18465977	0.74021531	0.10927991	-0.078811154	1.471407	0.025515058	-0.22220922	0.65717681	0.08559572	-0.034801359	1.3619745	0.44931387	-0.26684996	0.95959268	0.41129387	0.027539716	1.3844165	0.4221079	-0.14873487	0.9877895	0.40854014	-0.098171713	1.2021971	0.79339551	-0.2924612	1.0455739	0.81421389	0.072262609	1.2272765	0.90029971	-0.20427483	1.145563	0.90152281	0.033098374	0.98278436	0.90072918	-0.14962032	1.0915708	1.3653116	-0.26609227	1.102168	1.3629255	0.056374351	1.0090276	1.3860462	-0.10868745	0.90947341	1.0888169	-0.35019622	1.1622802	1.0067514	0.13741408	0.93574571	0.85126077	-0.39375946	1.4122778	1.0093947	0.087212287
473	1.888	1.6434769	0.11948996	-0.23100155	0.84325299	0.039051959	-0.036013901	1.5164601	0.082186336	-0.26434789	0.71908499	0.094377387	0.0081275388	1.5149076	0.10208601	-0.1844399	0.74203261	0.11112359	-0.078763567	1.4745477	0.023787657	-0.22150242	0.65858947	0.088799839	-0.034870767	1.3695968	0.44901892	-0.26715283	0.96466362	0.41056852	0.027240137	1.3920065	0.42219079	-0.14890151	0.99342577	0.40730304	-0.09861797	1.2088563	0.79319156	-0.29309495	1.0514085	0.81314855	0.071190639	1.2338699	0.89951542	-0.20446874	1.1517495	0.90039687	0.032635381	0.9887573	0.89995744	-0.15031705	1.097087	1.364364	-0.26701241	1.1084352	1.3621388	0.055380286	1.0149316	1.3850076	-0.10948698	0.91538315	1.0879197	-0.35057651	1.169371	1.0058377	0.13534242	0.94188255	0.85025284	-0.39492957	1.4193536	1.0090484	0.085318232
474	1.892	1.6469839	0.1166419	-0.23117104	0.84361702	0.039063651	-0.036072697	1.5197442	0.080248003	-0.26406082	0.72065374	0.096745673	0.0081538823	1.5177298	0.10105178	-0.18405531	0.74395223	0.11306426	-0.07877718	1.4772039	0.02215706	-0.22084837	0.66009158	0.09213413	-0.035003999	1.3771903	0.44871502	-0.26745106	0.96984846	0.40989724	0.026937565	1.3996462	0.42229752	-0.14908876	0.99910595	0.40612053	-0.098917304	1.2154807	0.79297693	-0.2937818	1.0577494	0.81190112	0.070209011	1.2405159	0.89880488	-0.20473023	1.158074	0.89926988	0.032136551	0.99484461	0.89922611	-0.15094886	1.1026393	1.3634425	-0.26794094	1.1147383	1.3614009	0.054357697	1.0208705	1.3839852	-0.11029824	0.92133435	1.0869182	-0.35098321	1.1764026	1.0049675	0.13321702	0.94813415	0.84924725	-0.39609784	1.4263913	1.0086428	0.083412601
